<svg xmlns="http://www.w3.org/2000/svg" width="1200" height="900" viewBox="0 0 1200 900" role="img" aria-labelledby="title desc">
  <title id="title">Final memory placeholder</title>
  <desc id="desc">A warm illustrated night sky reserved for the final photo.</desc>
  <defs>
    <linearGradient id="sky" x1="0" x2="0" y1="0" y2="1">
      <stop stop-color="#28234f"/>
      <stop offset="1" stop-color="#6e4d74"/>
    </linearGradient>
  </defs>
  <rect width="1200" height="900" fill="url(#sky)"/>
  <circle cx="910" cy="222" r="108" fill="#fff4bd" opacity=".95"/>
  <circle cx="960" cy="180" r="108" fill="#302950"/>
  <g fill="#fff4bd">
    <circle cx="180" cy="160" r="5"/><circle cx="300" cy="255" r="8"/><circle cx="510" cy="125" r="6"/><circle cx="704" cy="270" r="5"/><circle cx="1035" cy="330" r="7"/>
  </g>
  <path d="M0 660c190-112 330-91 472 5 153 104 277 96 397 22 111-68 209-62 331 8v205H0z" fill="#17142e"/>
  <path d="M555 658c-32-52-117-26-98 37 12 40 62 75 98 107 37-32 87-67 99-107 18-63-67-89-99-37z" fill="none" stroke="#ffb6d8" stroke-width="11"/>
  <text x="600" y="518" fill="#fff7dc" font-family="ui-monospace, monospace" font-size="39" font-weight="700" text-anchor="middle">ONE LAST MEMORY</text>
  <text x="600" y="572" fill="#d9cce8" font-family="ui-monospace, monospace" font-size="24" text-anchor="middle">replace in finalLetter.ts</text>
</svg>
