<svg xmlns="http://www.w3.org/2000/svg" viewBox="0 0 1200 630" role="img" aria-labelledby="title desc">
  <title id="title">From Sound to Shape — Nhat-Nam Nguyen</title>
  <desc id="desc">A waveform becomes learned representation blocks and a vocal-tract contour.</desc>
  <rect width="1200" height="630" fill="#f4f2ec"/>
  <g stroke="#d2dcda" stroke-width="1" opacity=".7">
    <path d="M0 90h1200M0 180h1200M0 270h1200M0 360h1200M0 450h1200M0 540h1200"/>
    <path d="M90 0v630M180 0v630M270 0v630M360 0v630M450 0v630M540 0v630M630 0v630M720 0v630M810 0v630M900 0v630M990 0v630M1080 0v630"/>
  </g>
  <text x="72" y="86" fill="#17646d" font-family="ui-monospace, monospace" font-size="18" font-weight="700" letter-spacing="4">NHAT-NAM NGUYEN · RESEARCH</text>
  <text x="72" y="196" fill="#102832" font-family="ui-sans-serif, system-ui, sans-serif" font-size="82" font-weight="720" letter-spacing="-4">From sound</text>
  <text x="72" y="282" fill="#102832" font-family="ui-sans-serif, system-ui, sans-serif" font-size="82" font-weight="720" letter-spacing="-4">to shape.</text>
  <text x="76" y="346" fill="#526a72" font-family="ui-sans-serif, system-ui, sans-serif" font-size="25">Speech · Computer Vision · Real-time MRI · Articulatory AI</text>
  <path d="M78 458h22l13-27 15 58 17-98 18 136 18-106 18 69 18-34 18 5 17-24 18 42 18-70 18 101 18-63 18 27h21" fill="none" stroke="#17646d" stroke-width="6" stroke-linecap="round" stroke-linejoin="round"/>
  <path d="M470 462h54m-16-16 16 16-16 16" fill="none" stroke="#c46443" stroke-width="4" stroke-linecap="round" stroke-linejoin="round"/>
  <g fill="#34858c" opacity=".82">
    <rect x="568" y="410" width="30" height="98" rx="6"/><rect x="608" y="434" width="30" height="74" rx="6"/><rect x="648" y="393" width="30" height="115" rx="6"/><rect x="688" y="423" width="30" height="85" rx="6"/>
  </g>
  <path d="M752 462h54m-16-16 16 16-16 16" fill="none" stroke="#c46443" stroke-width="4" stroke-linecap="round" stroke-linejoin="round"/>
  <path d="M864 385c86-18 155 45 149 112-4 46-35 82-77 99-38 15-80 6-99-25-15-24-7-55 16-69 21-13 48-5 57 16 7 17-2 36-19 42" fill="none" stroke="#102832" stroke-width="6" stroke-linecap="round" stroke-linejoin="round"/>
  <circle cx="864" cy="385" r="8" fill="#c46443"/><circle cx="1013" cy="497" r="8" fill="#c46443"/>
</svg>
